<svg width="75" height="97" viewBox="0 0 75 97" fill="none" xmlns="http://www.w3.org/2000/svg">
<g clip-path="url(#clip0)">
<path d="M74.5285 0C74.6841 0.553782 74.9794 1.10756 74.9794 1.66361C75.0109 10.6281 75.0214 19.5941 75.0109 28.5616C75.0109 50.7521 75.0109 72.9418 75.0109 95.1307C75.0109 96.939 74.9388 97.0068 73.1625 97.0068H1.75571C0.101119 97.0068 0.00418803 96.9096 0.00418803 95.2257C0.00268522 64.0993 0.00719365 32.9745 0.0177133 1.85121C0.0177133 1.23414 0.308507 0.617072 0.468556 0H74.5285ZM67.8651 7.37547C64.7092 7.37547 61.6615 7.40034 58.6115 7.35739C57.8879 7.35739 57.5971 7.60151 57.3334 8.26152C55.8749 11.8622 53.1879 14.0887 49.3219 14.1813C41.6125 14.3667 33.8963 14.3328 26.1846 14.2401C21.9422 14.1881 19.0365 11.9549 17.5037 7.99255C17.2963 7.46137 17.0145 7.37547 16.5253 7.37773C13.7549 7.39582 10.9845 7.37773 8.21404 7.37773H7.12976V89.5703H67.8651V7.37547ZM1.83461 1.82183V95.2234H73.1602V1.77662H58.057V5.63276H68.0274C69.5197 5.63276 69.6234 5.74125 69.6234 7.26246C69.6234 34.7647 69.6234 62.2654 69.6234 89.7647C69.6234 91.2949 69.4588 91.4667 67.971 91.4667H6.95168C5.48418 91.4667 5.33541 91.313 5.33541 89.8302C5.33541 81.9371 5.33541 74.0441 5.33541 66.151C5.33541 46.5132 5.33541 26.8746 5.33541 7.23533C5.33541 5.77064 5.44361 5.6531 6.89307 5.6531C9.88516 5.6531 12.8765 5.6531 15.8671 5.6531H16.8567V1.81053L1.83461 1.82183ZM19.1921 7.40034C20.0644 10.2393 22.8439 12.4567 25.7901 12.4816C33.5612 12.5434 41.3307 12.5388 49.0987 12.468C50.1244 12.468 51.2132 12.0883 52.1509 11.6339C53.0198 11.2231 53.7929 10.6341 54.4204 9.90479C55.0479 9.17552 55.5158 8.32231 55.7938 7.40034H19.1921ZM56.2108 1.78793H18.7908V5.55364H56.2108V1.78793Z" fill="#54565A"/>
<path d="M28.0567 45.4093C29.168 44.5481 30.0855 43.8407 31.0052 43.1241C31.4966 42.7399 31.9835 42.6359 32.3961 43.1897C32.8086 43.7435 32.511 44.1458 32.0782 44.4894C30.9195 45.4093 29.7293 46.2976 28.6022 47.2492C28.2981 47.5294 28.1113 47.9146 28.0792 48.3274C28.0364 51.0398 28.0589 53.7522 28.0589 56.4646C28.0589 57.6377 27.8335 57.8909 26.7064 57.8931C22.5511 57.8931 18.3974 57.8931 14.2451 57.8931C13.0752 57.8931 12.8655 57.6784 12.8633 56.5076C12.8633 52.341 12.8633 48.176 12.8633 44.0124C12.8633 42.8506 13.0887 42.6562 14.2609 42.6562C18.2569 42.6562 22.2536 42.6562 26.2511 42.6562C27.9372 42.6562 28.0296 42.7489 28.0364 44.3967C28.0567 44.6453 28.0567 44.9188 28.0567 45.4093ZM26.33 44.4283H14.6892V56.0578H26.2781V49.0982C24.5288 50.4544 22.8788 51.7202 21.258 53.0153C20.6178 53.5262 20.0993 53.5081 19.5403 52.9046C18.5529 51.8422 17.5363 50.8093 16.5286 49.7695C16.0778 49.3174 15.8321 48.7998 16.3889 48.3003C16.8983 47.8482 17.3537 48.1443 17.7842 48.5467C18.704 49.4079 19.6507 50.2419 20.6696 51.1619C22.3287 49.8735 24.1952 48.4337 26.0414 46.969C26.2106 46.7963 26.3095 46.5666 26.3187 46.3248C26.3548 45.7303 26.33 45.1313 26.33 44.4283Z" fill="#54565A"/>
<path d="M28.06 23.4134C29.106 22.5997 29.9941 21.9148 30.871 21.2209C31.3557 20.8389 31.8786 20.5428 32.3543 21.135C32.8705 21.7702 32.4377 22.229 31.926 22.6268C30.8304 23.4767 29.7597 24.3583 28.6438 25.1765C28.4384 25.3128 28.274 25.5027 28.1683 25.7257C28.0627 25.9488 28.0198 26.1966 28.0442 26.4423C28.0713 29.1547 28.0622 31.8671 28.0442 34.5795C28.0442 35.6464 27.8346 35.8724 26.7751 35.8769C22.5913 35.889 18.4074 35.889 14.2236 35.8769C13.0469 35.8769 12.8711 35.6825 12.8711 34.471C12.8711 30.3391 12.8711 26.2065 12.8711 22.0731C12.8711 20.8254 13.0582 20.6445 14.2958 20.6445H26.4685C27.8999 20.6445 28.0465 20.7892 28.0465 22.1996C28.0623 22.541 28.06 22.8732 28.06 23.4134ZM26.2904 27.0955C25.9523 27.3351 25.6998 27.5024 25.4631 27.6877C24.043 28.7863 22.6521 29.9255 21.1937 30.9697C20.86 31.2093 20.0936 31.363 19.8817 31.1687C18.6181 29.9875 17.4143 28.7435 16.275 27.4414C16.0969 27.2402 16.1487 26.5237 16.3403 26.3813C16.6086 26.1846 17.1248 26.2321 17.5013 26.318C17.7267 26.3722 17.9048 26.6977 18.1121 26.8898C18.9349 27.6493 19.7645 28.4065 20.6391 29.2089C22.0322 28.124 23.4411 26.8379 25.0326 25.841C26.437 24.9618 26.482 23.8316 26.2656 22.4505H14.6745V34.0461H26.2904V27.0955Z" fill="#54565A"/>
<path d="M28.0551 72.2719C28.0551 74.3853 28.0348 76.4987 28.0551 78.6008C28.0686 79.4914 27.6809 79.8734 26.822 79.8734C22.5766 79.8734 18.3311 79.8734 14.0857 79.8734C13.2133 79.8734 12.8549 79.4711 12.8594 78.5941C12.8775 74.3695 12.8594 70.1449 12.8594 65.9204C12.8594 64.8354 13.1029 64.6116 14.2119 64.6094C18.3612 64.6094 22.512 64.6094 26.6642 64.6094C27.7913 64.6094 28.0168 64.8625 28.0168 66.0176C28.0468 68.1061 28.0596 70.1909 28.0551 72.2719ZM26.2517 78.0561V66.4131H14.6808V78.0561H26.2517Z" fill="#54565A"/>
<path d="M48.5348 26.1794H37.4891C37.2051 26.1794 36.8715 26.254 36.6528 26.1297C36.3665 25.9669 35.9766 25.6301 35.9766 25.3905C35.9946 25.0764 36.3169 24.7124 36.6055 24.5022C36.7948 24.3644 37.1533 24.4457 37.435 24.4457H59.7134C59.9637 24.4457 60.2928 24.3734 60.4483 24.5022C60.7256 24.7283 61.0547 25.0809 61.0705 25.4064C61.084 25.6482 60.6895 25.9828 60.3942 26.1455C60.1688 26.2698 59.8419 26.1952 59.5579 26.1952H48.5122L48.5348 26.1794Z" fill="#54565A"/>
<path d="M48.5605 48.1781H37.5149C37.2015 48.1781 36.8386 48.2391 36.5884 48.108C36.3382 47.9769 35.9955 47.6333 36 47.3892C36.0604 47.0437 36.2518 46.735 36.5343 46.528C36.7214 46.3834 37.0776 46.4331 37.3571 46.4331C44.8125 46.4331 52.2665 46.4331 59.7189 46.4331C59.9714 46.4331 60.296 46.363 60.456 46.4919C60.7378 46.7179 61.0692 47.0615 61.0917 47.3756C61.1075 47.6152 60.7175 47.9678 60.429 48.1148C60.1765 48.2459 59.8136 48.1735 59.5002 48.1735H48.5605V48.1781Z" fill="#54565A"/>
<path d="M48.447 70.172H37.5975C37.2842 70.172 36.9212 70.2398 36.6688 70.1064C36.3825 69.9573 35.9925 69.6069 36.0083 69.3673C36.0286 69.0531 36.3554 68.6892 36.6417 68.4858C36.8333 68.3479 37.1895 68.4225 37.4713 68.4225H59.9277C60.5364 68.4225 61.1202 68.5265 61.136 69.2905C61.1518 70.0545 60.5679 70.172 59.9593 70.1742H48.447V70.172Z" fill="#54565A"/>
<path d="M41.7454 74.3047H46.1727C46.8129 74.3047 47.4599 74.4019 47.4644 75.1953C47.4689 75.9886 46.8152 76.0858 46.1817 76.0858C43.1656 76.0858 40.1509 76.0858 37.1378 76.0858C36.5382 76.0858 35.9476 75.9886 35.9453 75.2088C35.9431 74.429 36.5269 74.325 37.131 74.3205C38.6684 74.3205 40.208 74.3205 41.7454 74.3205V74.3047Z" fill="#54565A"/>
<path d="M41.6508 32.0945H37.1311C36.5247 32.0945 35.9364 32.0063 35.9454 31.2242C35.9544 30.4422 36.5202 30.3359 37.1334 30.3359H46.2697C46.8964 30.3359 47.4622 30.5009 47.4667 31.2242C47.4712 31.9476 46.8829 32.0877 46.2675 32.0854C44.7278 32.0854 43.1905 32.0854 41.6508 32.0854V32.0945Z" fill="#54565A"/>
<path d="M41.5949 54.0743H37.1698C36.577 54.0743 35.9616 54.0246 35.9458 53.2403C35.9255 52.4107 36.5499 52.3203 37.1879 52.3203H46.2273C46.8427 52.3203 47.4378 52.4492 47.4626 53.1725C47.4919 53.9817 46.8494 54.0766 46.207 54.0766L41.5949 54.0743Z" fill="#54565A"/>
</g>
<defs>
<clipPath id="clip0">
<rect width="75" height="97" fill="white"/>
</clipPath>
</defs>
</svg>
