<svg width="19" height="16" viewBox="0 0 19 16" fill="none" xmlns="http://www.w3.org/2000/svg">
<path d="M0.5 7.89258C0.5 7.58984 0.636719 7.28711 0.861328 7.0625L6.91602 1.01758C7.16992 0.763672 7.44336 0.65625 7.7168 0.65625C8.36133 0.65625 8.82031 1.11523 8.82031 1.7207C8.82031 2.04297 8.69336 2.31641 8.48828 2.52148L6.39844 4.62109L3.91797 6.89648L6.01758 6.7793H17.0039C17.6777 6.7793 18.1465 7.22852 18.1465 7.89258C18.1465 8.55664 17.6777 9.01562 17.0039 9.01562H6.01758L3.91797 8.88867L6.39844 11.1641L8.48828 13.2734C8.69336 13.4688 8.82031 13.7422 8.82031 14.0645C8.82031 14.6797 8.36133 15.1387 7.7168 15.1387C7.44336 15.1387 7.16992 15.0215 6.93555 14.7871L0.861328 8.72266C0.636719 8.50781 0.5 8.20508 0.5 7.89258Z" fill="white"/>
</svg>
