<svg width="26" height="16" viewBox="0 0 26 16" fill="none" xmlns="http://www.w3.org/2000/svg">
<path d="M13 15.2246C20.1343 15.2246 25.0142 9.46338 25.0142 7.67285C25.0142 5.87305 20.125 0.130371 13 0.130371C5.97705 0.130371 0.98584 5.87305 0.98584 7.67285C0.98584 9.46338 5.96777 15.2246 13 15.2246ZM13 13.7217C7.28516 13.7217 2.69287 8.90674 2.69287 7.67285C2.69287 6.63379 7.28516 1.62402 13 1.62402C18.7056 1.62402 23.3071 6.63379 23.3071 7.67285C23.3071 8.90674 18.7056 13.7217 13 13.7217ZM13 12.5156C15.6997 12.5156 17.8613 10.3076 17.8613 7.67285C17.8613 4.96387 15.6997 2.83008 13 2.83008C10.291 2.83008 8.12939 4.96387 8.13867 7.67285C8.14795 10.3076 10.291 12.5156 13 12.5156ZM13 9.25928C12.1187 9.25928 11.395 8.54492 11.395 7.67285C11.395 6.7915 12.1187 6.07715 13 6.07715C13.8813 6.07715 14.605 6.7915 14.605 7.67285C14.605 8.54492 13.8813 9.25928 13 9.25928Z" fill="#00AC69"/>
</svg>
