<svg width="56" height="56" viewBox="0 0 56 56" fill="none" xmlns="http://www.w3.org/2000/svg">
<path d="M14 0C12.075 0 10.5 1.575 10.5 3.5V52.5C10.5 54.425 12.075 56 14 56H49C50.925 56 52.5 54.425 52.5 52.5V14L38.5 0H14Z" fill="#E2E5E7"/>
<path d="M42 14H52.5L38.5 0V10.5C38.5 12.425 40.075 14 42 14Z" fill="#B0B7BD"/>
<path d="M52.5 24.5L42 14H52.5V24.5Z" fill="#CAD1D8"/>
<path d="M45.5 45.5C45.5 46.4625 44.7125 47.25 43.75 47.25H5.25C4.2875 47.25 3.5 46.4625 3.5 45.5V28C3.5 27.0375 4.2875 26.25 5.25 26.25H43.75C44.7125 26.25 45.5 27.0375 45.5 28V45.5Z" fill="#84BD5A"/>
<path d="M14.5031 42.0002C13.6211 42.0002 13.2711 41.148 13.7751 40.546L18.7573 33.9275H14.6274C13.4111 33.9275 13.5091 32.209 14.6274 32.209H20.2676C21.3298 32.209 21.6378 33.2135 20.8836 34.0272L16.1113 40.224H20.6596C21.7796 40.224 21.9196 42.002 20.5493 42.002H14.5031V42.0002Z" fill="white"/>
<path d="M23.1875 33.16C23.1875 32.012 25.0355 31.97 25.0355 33.16V41.1488C25.0355 42.3091 23.1875 42.3388 23.1875 41.1488V33.16Z" fill="white"/>
<path d="M27.5156 33.1574C27.5156 32.6954 27.8796 32.1914 28.4676 32.1914H31.6999C33.5199 32.1914 35.1579 33.4094 35.1579 35.7439C35.1579 37.9559 33.5199 39.1879 31.6999 39.1879H29.3636V41.0359C29.3636 41.6519 28.9716 42.0002 28.4676 42.0002C28.0056 42.0002 27.5156 41.6519 27.5156 41.0359V33.1574ZM29.3619 33.9537V37.4397H31.6981C32.6361 37.4397 33.3781 36.6119 33.3781 35.7439C33.3781 34.7657 32.6361 33.9537 31.6981 33.9537H29.3619Z" fill="white"/>
<path d="M43.75 47.25H10.5V49H43.75C44.7125 49 45.5 48.2125 45.5 47.25V45.5C45.5 46.4625 44.7125 47.25 43.75 47.25Z" fill="#CAD1D8"/>
</svg>
