<svg width="56" height="56" viewBox="0 0 56 56" fill="none" xmlns="http://www.w3.org/2000/svg">
<path d="M14 0C12.075 0 10.5 1.575 10.5 3.5V52.5C10.5 54.425 12.075 56 14 56H49C50.925 56 52.5 54.425 52.5 52.5V14L38.5 0H14Z" fill="#E2E5E7"/>
<path d="M42 14H52.5L38.5 0V10.5C38.5 12.425 40.075 14 42 14Z" fill="#B0B7BD"/>
<path d="M52.5 24.5L42 14H52.5V24.5Z" fill="#CAD1D8"/>
<path d="M45.5 45.5C45.5 46.4625 44.7125 47.25 43.75 47.25H5.25C4.2875 47.25 3.5 46.4625 3.5 45.5V28C3.5 27.0375 4.2875 26.25 5.25 26.25H43.75C44.7125 26.25 45.5 27.0375 45.5 28V45.5Z" fill="#50BEE8"/>
<path d="M15.5238 33.1574C15.5238 31.9814 17.3718 31.9814 17.3718 33.1574V38.6839C17.3718 40.8819 16.3218 42.2119 13.9015 42.2119C12.7115 42.2119 11.7193 41.8882 10.8513 40.7699C10.1373 39.9159 11.4813 38.6857 12.2093 39.5799C12.7973 40.3079 13.4273 40.4759 14.0415 40.4479C14.8238 40.4199 15.5115 40.0682 15.5255 38.6839V33.1574H15.5238Z" fill="white"/>
<path d="M19.8359 33.1594C19.8359 32.6974 20.1999 32.1934 20.7879 32.1934H24.0202C25.8402 32.1934 27.4782 33.4114 27.4782 35.7459C27.4782 37.9579 25.8402 39.1899 24.0202 39.1899H21.6839V41.0379C21.6839 41.6539 21.2919 42.0021 20.7879 42.0021C20.3259 42.0021 19.8359 41.6539 19.8359 41.0379V33.1594ZM21.6839 33.9556V37.4416H24.0202C24.9582 37.4416 25.7002 36.6139 25.7002 35.7459C25.7002 34.7676 24.9582 33.9556 24.0202 33.9556H21.6839Z" fill="white"/>
<path d="M37.4704 40.9253C36.4764 41.7513 35.2584 42.1013 34.0282 42.1013C31.0882 42.1013 29.0039 40.4231 29.0039 37.0911C29.0039 34.2666 31.2019 32.0703 34.1524 32.0703C35.2584 32.0703 36.4747 32.4466 37.3427 33.3006C38.1949 34.1388 36.9647 35.3848 36.1264 34.6446C35.6084 34.1406 34.8804 33.7626 34.1524 33.7626C32.4602 33.7626 30.8239 35.1188 30.8239 37.0911C30.8239 39.1631 32.1942 40.4231 34.0282 40.4231C34.8804 40.4231 35.6084 40.1693 36.1264 39.7931V38.0728H34.0282C32.7822 38.0728 32.9082 36.3648 34.0282 36.3648H36.8264C37.3444 36.3648 37.8187 36.7568 37.8187 37.1908V40.1711C37.8187 40.4231 37.7084 40.6576 37.4704 40.9253Z" fill="white"/>
<path d="M43.75 47.25H10.5V49H43.75C44.7125 49 45.5 48.2125 45.5 47.25V45.5C45.5 46.4625 44.7125 47.25 43.75 47.25Z" fill="#CAD1D8"/>
</svg>
