<svg width="56" height="56" viewBox="0 0 56 56" fill="none" xmlns="http://www.w3.org/2000/svg">
<path d="M14 0C12.075 0 10.5 1.575 10.5 3.5V52.5C10.5 54.425 12.075 56 14 56H49C50.925 56 52.5 54.425 52.5 52.5V14L38.5 0H14Z" fill="#E2E5E7"/>
<path d="M42 14H52.5L38.5 0V10.5C38.5 12.425 40.075 14 42 14Z" fill="#B0B7BD"/>
<path d="M52.5 24.5L42 14H52.5V24.5Z" fill="#CAD1D8"/>
<path d="M45.5 45.5C45.5 46.4625 44.7125 47.25 43.75 47.25H5.25C4.2875 47.25 3.5 46.4625 3.5 45.5V28C3.5 27.0375 4.2875 26.25 5.25 26.25H43.75C44.7125 26.25 45.5 27.0375 45.5 28V45.5Z" fill="#F15642"/>
<path d="M11.5312 33.1574C11.5312 32.6954 11.8953 32.1914 12.4815 32.1914H15.7138C17.5338 32.1914 19.1718 33.4094 19.1718 35.7439C19.1718 37.9559 17.5338 39.1879 15.7138 39.1879H13.3775V41.0359C13.3775 41.6519 12.9873 42.0002 12.4833 42.0002C12.0213 42.0002 11.533 41.6519 11.533 41.0359V33.1574H11.5312V33.1574ZM13.3775 33.9537V37.4397H15.7138C16.6518 37.4397 17.3938 36.6119 17.3938 35.7439C17.3938 34.7657 16.6518 33.9537 15.7138 33.9537H13.3775Z" fill="white"/>
<path d="M20.957 33.1574C20.957 32.6954 21.321 32.1914 21.909 32.1914H25.1413C26.9613 32.1914 28.5993 33.4094 28.5993 35.7439C28.5993 37.9559 26.9613 39.1879 25.1413 39.1879H22.805V41.0359C22.805 41.6519 22.413 42.0002 21.909 42.0002C21.447 42.0002 20.957 41.6519 20.957 41.0359V33.1574V33.1574ZM22.8033 33.9537V37.4397H25.1395C26.0775 37.4397 26.8195 36.6119 26.8195 35.7439C26.8195 34.7657 26.0775 33.9537 25.1395 33.9537H22.8033Z" fill="white"/>
<path d="M32.9928 34.0696H30.5463C29.3283 34.0696 29.3283 32.2793 30.5463 32.2793H37.1631C38.4091 32.2793 38.4091 34.0696 37.1631 34.0696H34.8408V41.1361C34.8408 42.3523 32.9928 42.3821 32.9928 41.1361V34.0696Z" fill="white"/>
<path d="M43.75 47.25H10.5V49H43.75C44.7125 49 45.5 48.2125 45.5 47.25V45.5C45.5 46.4625 44.7125 47.25 43.75 47.25Z" fill="#CAD1D8"/>
</svg>
