<svg width="56" height="56" viewBox="0 0 56 56" fill="none" xmlns="http://www.w3.org/2000/svg">
<path d="M14 0C12.075 0 10.5 1.575 10.5 3.5V52.5C10.5 54.425 12.075 56 14 56H49C50.925 56 52.5 54.425 52.5 52.5V14L38.5 0H14Z" fill="#E2E5E7"/>
<path d="M42 14H52.5L38.5 0V10.5C38.5 12.425 40.075 14 42 14Z" fill="#B0B7BD"/>
<path d="M52.5 24.5L42 14H52.5V24.5Z" fill="#CAD1D8"/>
<path d="M45.5 45.5C45.5 46.4625 44.7125 47.25 43.75 47.25H5.25C4.2875 47.25 3.5 46.4625 3.5 45.5V28C3.5 27.0375 4.2875 26.25 5.25 26.25H43.75C44.7125 26.25 45.5 27.0375 45.5 28V45.5Z" fill="#F15642"/>
<path d="M11.1289 33.1574C11.1289 32.6954 11.4929 32.1914 12.0792 32.1914H15.3114C17.1314 32.1914 18.7694 33.4094 18.7694 35.7439C18.7694 37.9559 17.1314 39.1879 15.3114 39.1879H12.9752V41.0359C12.9752 41.6519 12.5832 42.0002 12.0792 42.0002C11.6172 42.0002 11.1289 41.6519 11.1289 41.0359V33.1574V33.1574ZM12.9752 33.9537V37.4397H15.3114C16.2494 37.4397 16.9914 36.6119 16.9914 35.7439C16.9914 34.7657 16.2494 33.9537 15.3114 33.9537H12.9752Z" fill="white"/>
<path d="M21.5129 41.9972C21.0509 41.9972 20.5469 41.7452 20.5469 41.1309V33.1825C20.5469 32.6802 21.0509 32.3145 21.5129 32.3145H24.7171C31.1116 32.3145 30.9716 41.9972 24.8431 41.9972H21.5129V41.9972ZM22.3949 34.0225V40.291H24.7171C28.4954 40.291 28.6634 34.0225 24.7171 34.0225H22.3949V34.0225Z" fill="white"/>
<path d="M33.2407 34.1362V36.3605H36.8089C37.3129 36.3605 37.8169 36.8645 37.8169 37.3527C37.8169 37.8147 37.3129 38.1927 36.8089 38.1927H33.2407V41.1309C33.2407 41.6209 32.8924 41.9972 32.4024 41.9972C31.7864 41.9972 31.4102 41.6209 31.4102 41.1309V33.1825C31.4102 32.6802 31.7882 32.3145 32.4024 32.3145H37.3147C37.9307 32.3145 38.2947 32.6802 38.2947 33.1825C38.2947 33.6305 37.9307 34.1345 37.3147 34.1345H33.2407V34.1362Z" fill="white"/>
<path d="M43.75 47.25H10.5V49H43.75C44.7125 49 45.5 48.2125 45.5 47.25V45.5C45.5 46.4625 44.7125 47.25 43.75 47.25Z" fill="#CAD1D8"/>
</svg>
