<svg width="56" height="56" viewBox="0 0 56 56" fill="none" xmlns="http://www.w3.org/2000/svg">
<path d="M14 0C12.075 0 10.5 1.575 10.5 3.5V52.5C10.5 54.425 12.075 56 14 56H49C50.925 56 52.5 54.425 52.5 52.5V14L38.5 0H14Z" fill="#E2E5E7"/>
<path d="M42 14H52.5L38.5 0V10.5C38.5 12.425 40.075 14 42 14Z" fill="#B0B7BD"/>
<path d="M52.5 24.5L42 14H52.5V24.5Z" fill="#CAD1D8"/>
<path d="M45.5 45.5C45.5 46.4625 44.7125 47.25 43.75 47.25H5.25C4.2875 47.25 3.5 46.4625 3.5 45.5V28C3.5 27.0375 4.2875 26.25 5.25 26.25H43.75C44.7125 26.25 45.5 27.0375 45.5 28V45.5Z" fill="#50BEE8"/>
<path d="M10.1262 42.0031C9.66416 42.0031 9.16016 41.7493 9.16016 41.1351V33.1883C9.16016 32.6843 9.66416 32.3203 10.1262 32.3203H13.3304C19.7249 32.3203 19.5832 42.0031 13.4547 42.0031H10.1262V42.0031ZM11.0082 34.0266V40.2951H13.3304C17.1087 40.2951 17.2749 34.0266 13.3304 34.0266H11.0082Z" fill="white"/>
<path d="M24.9364 42.1415C22.3482 42.2535 19.6602 40.5315 19.6602 37.1033C19.6602 33.661 22.3464 31.9688 24.9364 31.9688C27.3847 32.093 29.9449 33.787 29.9449 37.1033C29.9449 40.4213 27.3847 42.1415 24.9364 42.1415ZM24.7824 33.7887C23.2144 33.7887 21.5082 34.8947 21.5082 37.105C21.5082 39.303 23.2162 40.423 24.7824 40.423C26.3924 40.423 28.1127 39.303 28.1127 37.105C28.1127 34.893 26.3924 33.7887 24.7824 33.7887Z" fill="white"/>
<path d="M31.5898 37.087C31.5898 34.3867 33.2839 32.0645 36.5021 32.0645C37.7201 32.0645 38.6861 32.4285 39.7064 33.3105C40.0844 33.6587 40.1264 34.2747 39.7484 34.6667C39.3704 35.001 38.7964 34.9607 38.4604 34.6247C37.8881 34.0227 37.3001 33.8565 36.5021 33.8565C34.3479 33.8565 33.3136 35.3825 33.3136 37.0887C33.3136 38.8247 34.3339 40.419 36.5021 40.419C37.3001 40.419 38.0421 40.0952 38.6861 39.523C39.1184 39.187 39.7204 39.3532 39.9724 39.691C40.1964 39.999 40.3066 40.517 39.8184 41.0052C38.8384 41.917 37.6641 42.099 36.5004 42.099C33.1158 42.099 31.5898 39.7872 31.5898 37.087Z" fill="white"/>
<path d="M43.75 47.25H10.5V49H43.75C44.7125 49 45.5 48.2125 45.5 47.25V45.5C45.5 46.4625 44.7125 47.25 43.75 47.25Z" fill="#CAD1D8"/>
</svg>
