<svg width="280" height="47" viewBox="0 0 280 47" fill="none" xmlns="http://www.w3.org/2000/svg">
<path d="M63.3909 23.0245H54.1877C54.0106 23.0229 53.8375 23.0763 53.6924 23.1773C53.5473 23.2783 53.4376 23.4218 53.3786 23.5879L46.8453 41.6957L44.2765 2.54258C44.2559 2.31488 44.1476 2.10395 43.9741 1.95394C43.8007 1.80393 43.5757 1.72647 43.3461 1.73778C43.1932 1.74906 43.0458 1.79944 42.9182 1.88404C42.7907 1.96864 42.6872 2.0846 42.6179 2.22066L28.3176 31.1127L15.6353 2.2609C15.5948 2.15076 15.5328 2.04972 15.4527 1.96365C15.3726 1.87758 15.2761 1.80819 15.1688 1.75952C15.0616 1.71085 14.9457 1.68387 14.8278 1.68014C14.71 1.6764 14.5926 1.696 14.4824 1.73778C14.3362 1.80964 14.211 1.91772 14.1189 2.05161C14.0268 2.18551 13.9709 2.34073 13.9565 2.50234L11.4686 23.0245H0.869754C0.639081 23.0245 0.417855 23.1157 0.254745 23.2779C0.0916345 23.4402 0 23.6602 0 23.8897C0 24.1191 0.0916345 24.3392 0.254745 24.5014C0.417855 24.6637 0.639081 24.7548 0.869754 24.7548H12.2372C12.4492 24.7558 12.6539 24.6779 12.8111 24.5364C12.9682 24.395 13.0666 24.2002 13.0868 23.9903L15.3117 5.88246L27.4478 33.5271C27.5211 33.6757 27.6348 33.8009 27.7761 33.8884C27.9173 33.9759 28.0804 34.0224 28.2468 34.0224C28.4132 34.0224 28.5762 33.9759 28.7175 33.8884C28.8587 33.8009 28.9724 33.6757 29.0457 33.5271L42.7393 5.90258L45.3688 46.0014C45.3765 46.1151 45.4067 46.2262 45.4577 46.3282C45.5087 46.4303 45.5794 46.5213 45.6659 46.5961C45.7523 46.6709 45.8528 46.7279 45.9615 46.764C46.0702 46.8 46.1849 46.8144 46.2992 46.8062C46.4686 46.7971 46.6316 46.7389 46.7682 46.6388C46.9048 46.5387 47.0089 46.401 47.0678 46.2428L54.7945 24.8756H63.3909C63.6013 24.8437 63.7933 24.7379 63.9321 24.5774C64.0708 24.4168 64.1471 24.2121 64.1471 24.0004C64.1471 23.7886 64.0708 23.5839 63.9321 23.4233C63.7933 23.2628 63.6013 23.157 63.3909 23.1251V23.0245Z" fill="#54565A"/>
<path d="M123.261 10.8135C123.077 10.8187 122.902 10.8952 122.773 11.0267C122.645 11.1582 122.573 11.3344 122.573 11.5177V13.087C122.561 13.5834 122.721 14.0689 123.027 14.4612C123.333 14.8536 123.766 15.1286 124.252 15.2399C124.525 15.3074 124.81 15.3176 125.087 15.2696C125.364 15.2217 125.628 15.1167 125.862 14.9614C126.097 14.8062 126.296 14.604 126.447 14.3678C126.598 14.1317 126.698 13.8668 126.74 13.59C126.761 13.4567 126.761 13.321 126.74 13.1876V11.5177C126.74 11.3344 126.668 11.1582 126.54 11.0267C126.411 10.8952 126.237 10.8187 126.052 10.8135H125.607V7.27241C122.425 4.53108 118.535 2.73039 114.377 2.07412C110.22 1.41784 105.96 1.93217 102.081 3.5589C98.2024 5.18563 94.8585 7.85983 92.4281 11.2789C89.9978 14.698 88.5779 18.7254 88.3293 22.9055H73.5839C72.7859 22.9105 72.021 23.2239 71.451 23.7796C70.8811 24.3353 70.5507 25.0896 70.5297 25.8832V44.2124C70.538 44.2933 70.5298 44.375 70.5056 44.4527C70.4814 44.5304 70.4416 44.6024 70.3887 44.6644C70.3358 44.7264 70.2709 44.7771 70.1978 44.8136C70.1247 44.85 70.0449 44.8713 69.9633 44.8763C69.8809 44.8847 69.7977 44.8767 69.7184 44.8528C69.6391 44.8289 69.5653 44.7897 69.5014 44.7373C69.4375 44.6849 69.3846 44.6204 69.3458 44.5476C69.3071 44.4748 69.2832 44.395 69.2756 44.313V8.74115C69.7369 8.64049 70.173 8.44853 70.5581 8.1767C70.9433 7.90487 71.2694 7.55872 71.5173 7.15889C71.7651 6.75905 71.9295 6.31369 72.0006 5.84933C72.0718 5.38498 72.0483 4.91113 71.9316 4.45599C71.8148 4.00085 71.6072 3.57375 71.321 3.2001C71.0348 2.82646 70.676 2.51392 70.2659 2.2811C69.8557 2.04827 69.4027 1.89993 68.9337 1.8449C68.4648 1.78987 67.9894 1.82928 67.5361 1.96078C66.7802 2.15446 66.1104 2.59262 65.6322 3.20634C65.154 3.82006 64.8945 4.57449 64.8945 5.35097C64.8945 6.12744 65.154 6.88188 65.6322 7.49559C66.1104 8.10931 66.7802 8.54747 67.5361 8.74115V44.2727C67.529 44.8671 67.7462 45.4424 68.1448 45.8852C68.5435 46.3279 69.0946 46.6058 69.6892 46.6639C70.2839 46.722 70.8788 46.5562 71.3565 46.1992C71.8342 45.8421 72.1599 45.3198 72.2692 44.7355C72.2895 44.5819 72.2895 44.4263 72.2692 44.2727V25.8832C72.2745 25.5399 72.4154 25.2124 72.6613 24.9715C72.9073 24.7305 73.2387 24.5955 73.5839 24.5956H88.2686C88.3366 28.8676 89.6306 33.0313 91.9983 36.5961C94.366 40.1609 97.7088 42.9783 101.633 44.7163C105.556 46.4543 109.898 47.0405 114.146 46.4058C118.393 45.7711 122.37 43.9421 125.607 41.1341V37.6533H126.073C126.26 37.6533 126.44 37.5791 126.573 37.4471C126.706 37.315 126.78 37.1359 126.78 36.9491V35.3798C126.789 34.8843 126.628 34.4007 126.322 34.0091C126.017 33.6176 125.586 33.3416 125.102 33.227C124.55 33.1197 123.977 33.2326 123.508 33.5412C123.039 33.8498 122.71 34.3295 122.594 34.8768C122.583 35.0107 122.583 35.1453 122.594 35.2792V36.9491C122.594 37.1359 122.668 37.315 122.801 37.4471C122.934 37.5791 123.114 37.6533 123.301 37.6533H123.827V40.3091C120.777 42.7458 117.096 44.275 113.209 44.7205C109.323 45.166 105.389 44.5096 101.861 42.827C98.3332 41.1444 95.3554 38.5041 93.2712 35.2107C91.1869 31.9173 90.081 28.1049 90.081 24.2133C90.081 20.3217 91.1869 16.5093 93.2712 13.2159C95.3554 9.92248 98.3332 7.28221 101.861 5.5996C105.389 3.91699 109.323 3.26057 113.209 3.70606C117.096 4.15156 120.777 5.68081 123.827 8.11744V10.8135H123.261ZM66.6259 5.38115C66.6259 5.03097 66.7303 4.68865 66.9259 4.39748C67.1215 4.10632 67.3995 3.87938 67.7247 3.74538C68.0499 3.61137 68.4078 3.57631 68.7531 3.64462C69.0984 3.71294 69.4156 3.88157 69.6645 4.12918C69.9134 4.3768 70.0829 4.69228 70.1516 5.03573C70.2203 5.37918 70.1851 5.73518 70.0503 6.0587C69.9156 6.38223 69.6875 6.65875 69.3948 6.8533C69.102 7.04785 68.7579 7.15169 68.4059 7.15169C68.1714 7.15439 67.9387 7.11043 67.7215 7.02241C67.5043 6.93439 67.307 6.80407 67.1412 6.63912C66.9754 6.47417 66.8444 6.27791 66.7559 6.06188C66.6674 5.84585 66.6232 5.61441 66.6259 5.38115Z" fill="#54565A"/>
<path d="M150.589 12.302V7.39275L148.182 11.4167H147.009L144.623 7.51347V12.302H142.195V3.04688H144.36L147.657 8.39874L150.832 3.04688H153.017V12.302H150.589Z" fill="#54565A"/>
<path d="M154.957 5.14062H157.485V7.77632H160.074V5.14062H162.603V12.3033H160.074V9.7883H157.485V12.3033H154.957V5.14062Z" fill="#54565A"/>
<path d="M165.859 11.957C165.266 11.6474 164.764 11.1898 164.403 10.6291C164.036 10.023 163.853 9.32419 163.877 8.61707C163.871 7.9501 164.053 7.2948 164.403 6.72581C164.775 6.19461 165.276 5.76553 165.859 5.47838C166.491 5.17717 167.182 5.01912 167.882 5.01562C168.582 5.0211 169.272 5.17905 169.905 5.47838C170.501 5.77439 171.004 6.22656 171.361 6.78617C171.723 7.39346 171.899 8.0928 171.867 8.79815C171.898 9.50339 171.722 10.2024 171.361 10.8101C171.005 11.3752 170.501 11.834 169.905 12.138C169.246 12.4424 168.528 12.6 167.801 12.6C167.074 12.6 166.357 12.4424 165.697 12.138L165.859 11.957ZM169.055 9.94498C169.356 9.5928 169.508 9.13864 169.48 8.67743C169.506 8.2287 169.353 7.78781 169.055 7.45012C168.914 7.30408 168.744 7.18792 168.556 7.10857C168.369 7.02923 168.167 6.98833 167.963 6.98833C167.759 6.98833 167.557 7.02923 167.369 7.10857C167.182 7.18792 167.012 7.30408 166.871 7.45012C166.572 7.78781 166.42 8.2287 166.446 8.67743C166.418 9.13864 166.57 9.5928 166.871 9.94498C167.012 10.091 167.182 10.2072 167.369 10.2865C167.557 10.3659 167.759 10.4068 167.963 10.4068C168.167 10.4068 168.369 10.3659 168.556 10.2865C168.744 10.2072 168.914 10.091 169.055 9.94498Z" fill="#54565A"/>
<path d="M179.352 7.13249H175.833V12.3033H173.305V5.14062H179.373L179.352 7.13249Z" fill="#54565A"/>
<path d="M181.617 11.9601C181.016 11.6621 180.511 11.2019 180.161 10.6322C179.794 10.0261 179.611 9.32732 179.635 8.62021C179.632 7.94849 179.821 7.2898 180.179 6.72019C180.537 6.15057 181.05 5.69325 181.658 5.40104C182.313 5.09575 183.028 4.9375 183.751 4.9375C184.475 4.9375 185.189 5.09575 185.845 5.40104C186.444 5.69176 186.949 6.14511 187.301 6.70883C187.669 7.31441 187.852 8.01357 187.827 8.72081C187.851 9.42792 187.668 10.1267 187.301 10.7328C186.95 11.3025 186.446 11.7627 185.845 12.0607C185.189 12.366 184.475 12.5242 183.751 12.5242C183.028 12.5242 182.313 12.366 181.658 12.0607L181.617 11.9601ZM184.793 9.94812C184.949 9.77762 185.069 9.57743 185.146 9.3596C185.222 9.14176 185.253 8.91078 185.238 8.68057C185.251 8.45665 185.219 8.23232 185.142 8.0213C185.066 7.81028 184.947 7.61699 184.793 7.45326C184.654 7.30313 184.485 7.18417 184.297 7.10436C184.109 7.02455 183.905 6.98573 183.7 6.99051C183.496 6.98826 183.294 7.02822 183.106 7.10788C182.918 7.18754 182.748 7.30514 182.608 7.45326C182.319 7.79609 182.168 8.23331 182.183 8.68057C182.165 9.14042 182.316 9.59108 182.608 9.94812C182.748 10.0962 182.918 10.2138 183.106 10.2935C183.294 10.3732 183.496 10.4131 183.7 10.4109C183.904 10.4182 184.106 10.3825 184.294 10.3062C184.483 10.2299 184.653 10.1147 184.793 9.96824V9.94812Z" fill="#54565A"/>
<path d="M196.526 5.14062V12.3033H193.998V7.13249H191.571V12.3033H189.062V5.14062H196.526Z" fill="#54565A"/>
<path d="M204.655 5.4592C205.195 5.76758 205.637 6.22077 205.93 6.76698C206.273 7.38088 206.441 8.07677 206.415 8.77896C206.441 9.48116 206.273 10.177 205.93 10.7909C205.642 11.3412 205.199 11.7958 204.655 12.0987C204.112 12.4002 203.497 12.553 202.875 12.5414C202.505 12.5616 202.134 12.5059 201.786 12.3779C201.438 12.2498 201.121 12.0521 200.853 11.7969V14.8753H198.324V5.13728H200.731V5.76099C201.006 5.4756 201.34 5.25378 201.711 5.11123C202.081 4.96868 202.479 4.90889 202.875 4.93608C203.505 4.94889 204.12 5.12954 204.655 5.4592ZM203.421 9.96603C203.719 9.62003 203.871 9.17328 203.846 8.7186C203.871 8.26393 203.719 7.81718 203.421 7.47118C203.28 7.32513 203.11 7.20897 202.923 7.12963C202.735 7.05028 202.533 7.00939 202.329 7.00939C202.125 7.00939 201.923 7.05028 201.736 7.12963C201.548 7.20897 201.378 7.32513 201.237 7.47118C200.939 7.81718 200.787 8.26393 200.812 8.7186C200.787 9.17328 200.939 9.62003 201.237 9.96603C201.378 10.1121 201.548 10.2282 201.736 10.3076C201.923 10.3869 202.125 10.4278 202.329 10.4278C202.533 10.4278 202.735 10.3869 202.923 10.3076C203.11 10.2282 203.28 10.1121 203.421 9.96603Z" fill="#54565A"/>
<path d="M209.186 11.9586C208.585 11.6605 208.08 11.2004 207.729 10.6306C207.352 10.0289 207.169 9.32695 207.203 8.61866C207.188 7.95053 207.371 7.29271 207.729 6.7274C208.078 6.16311 208.574 5.70401 209.165 5.39949C209.824 5.09516 210.542 4.9375 211.269 4.9375C211.996 4.9375 212.713 5.09516 213.373 5.39949C213.972 5.69021 214.477 6.14356 214.829 6.70728C215.191 7.31457 215.367 8.01391 215.335 8.71926C215.366 9.4245 215.19 10.1235 214.829 10.7312C214.478 11.301 213.974 11.7611 213.373 12.0592C212.744 12.3691 212.051 12.5276 211.35 12.5219C210.592 12.5232 209.846 12.3291 209.186 11.9586ZM212.361 9.94657C212.662 9.59439 212.814 9.14023 212.786 8.67902C212.812 8.23029 212.659 7.7894 212.361 7.45171C212.22 7.30567 212.05 7.18951 211.862 7.11016C211.675 7.03082 211.473 6.98992 211.269 6.98992C211.065 6.98992 210.863 7.03082 210.676 7.11016C210.488 7.18951 210.318 7.30567 210.177 7.45171C209.879 7.7894 209.726 8.23029 209.752 8.67902C209.724 9.14023 209.876 9.59439 210.177 9.94657C210.318 10.0926 210.488 10.2088 210.676 10.2881C210.863 10.3675 211.065 10.4084 211.269 10.4084C211.473 10.4084 211.675 10.3675 211.862 10.2881C212.05 10.2088 212.22 10.0926 212.361 9.94657Z" fill="#54565A"/>
<path d="M225.934 11.3332C225.002 12.0396 223.869 12.434 222.697 12.4599V14.8743H220.472V12.4599C219.299 12.4425 218.164 12.0472 217.236 11.3332C216.857 11.0098 216.557 10.6038 216.361 10.1467C216.164 9.6897 216.076 9.19382 216.103 8.69749C216.074 8.2087 216.159 7.71978 216.352 7.26935C216.545 6.81891 216.841 6.41928 217.216 6.10204C218.159 5.40722 219.299 5.02692 220.472 5.01557V2.48047H222.697V5.01557C223.869 5.04015 225.005 5.41914 225.954 6.10204C226.326 6.42127 226.62 6.82123 226.813 7.27117C227.006 7.72112 227.093 8.20906 227.066 8.69749C227.093 9.19382 227.005 9.6897 226.809 10.1467C226.613 10.6038 226.313 11.0098 225.934 11.3332ZM218.976 10.0254C219.397 10.378 219.923 10.583 220.472 10.6089V6.84647C219.918 6.87796 219.387 7.08207 218.955 7.42994C218.796 7.59839 218.674 7.79828 218.597 8.01665C218.521 8.23502 218.491 8.46699 218.51 8.69749C218.495 8.93851 218.528 9.18015 218.608 9.4082C218.688 9.63625 218.813 9.8461 218.976 10.0254ZM224.214 10.0254C224.377 9.8461 224.502 9.63625 224.582 9.4082C224.662 9.18015 224.695 8.93851 224.68 8.69749C224.696 8.46553 224.663 8.23269 224.583 8.01424C224.503 7.7958 224.377 7.59668 224.214 7.42994C223.785 7.08049 223.252 6.88237 222.697 6.86659V10.6089C223.254 10.5874 223.788 10.3821 224.214 10.0254Z" fill="#54565A"/>
<path d="M228.359 5.14062H230.867V8.90303L233.881 5.14062H236.228V12.3033H233.679V8.54087L230.685 12.3033H228.359V5.14062Z" fill="#54565A"/>
<path d="M245.371 5.14062V12.3033H242.843V7.13249H241.023V8.23908C240.995 9.01937 240.887 9.79475 240.699 10.5529C240.588 11.0891 240.329 11.5839 239.95 11.9814C239.761 12.1565 239.538 12.2915 239.295 12.378C239.051 12.4645 238.793 12.5007 238.535 12.4844C238.118 12.4709 237.704 12.4101 237.301 12.3033L237.422 10.2913H237.726C237.843 10.297 237.96 10.2764 238.069 10.2312C238.177 10.1859 238.274 10.1171 238.353 10.0297C238.509 9.81495 238.613 9.56699 238.656 9.30543C238.656 9.02375 238.656 8.62135 238.656 8.11836V5.14062H245.371Z" fill="#54565A"/>
<path d="M253.604 7.99764C253.857 8.21598 254.056 8.4892 254.186 8.79619C254.315 9.10319 254.372 9.43575 254.352 9.76818C254.371 10.1269 254.302 10.4846 254.15 10.8106C253.998 11.1366 253.769 11.421 253.483 11.6393C252.785 12.1376 251.932 12.373 251.076 12.3033H247.172V5.14062H249.68V7.3538H251.399C252.186 7.31544 252.963 7.54229 253.604 7.99764ZM251.784 9.72794C251.792 9.61261 251.774 9.4969 251.732 9.38907C251.69 9.28125 251.625 9.18398 251.541 9.10423C251.334 8.96062 251.085 8.88981 250.833 8.90303H249.68V10.573H250.813C251.46 10.5931 251.784 10.3114 251.784 9.7883V9.72794Z" fill="#54565A"/>
<path d="M255.527 5.14062H258.035V7.77632H260.645V5.14062H263.173V12.3033H260.645V9.7883H258.035V12.3033H255.527V5.14062Z" fill="#54565A"/>
<path d="M270.657 5.76452C270.989 6.0862 271.246 6.47622 271.41 6.90721C271.574 7.3382 271.642 7.79972 271.608 8.25938V12.2833H269.241V11.378C269.03 11.7407 268.715 12.0334 268.338 12.2195C267.96 12.4056 267.535 12.4768 267.117 12.4242C266.616 12.4437 266.118 12.3473 265.661 12.1425C265.288 11.9655 264.967 11.6951 264.73 11.3578C264.524 11.0109 264.419 10.6139 264.427 10.211C264.416 9.90464 264.482 9.60041 264.62 9.32621C264.758 9.05202 264.963 8.81664 265.216 8.64166C265.939 8.20858 266.781 8.01159 267.623 8.0783H269.018C269.018 7.31375 268.452 6.93147 267.481 6.93147C267.125 6.93582 266.771 6.99001 266.429 7.09243C266.1 7.18876 265.791 7.34573 265.519 7.55519L264.73 5.76452C265.179 5.48437 265.671 5.28039 266.187 5.16093C266.747 5.00833 267.325 4.93384 267.906 4.93961C268.894 4.87051 269.872 5.16401 270.657 5.76452ZM268.634 10.5732C268.864 10.4276 269.036 10.2071 269.12 9.94944V9.38609H268.027C267.279 9.38609 266.915 9.62753 266.915 10.1104C266.912 10.2133 266.932 10.3156 266.974 10.4096C267.016 10.5037 267.079 10.5871 267.158 10.6536C267.37 10.7837 267.617 10.8469 267.866 10.8347C268.122 10.8345 268.374 10.765 268.594 10.6335L268.634 10.5732Z" fill="#54565A"/>
<path d="M279.999 5.13758V12.3002H277.753V10.2882H276.6L275.326 12.3002H272.656L274.254 10.0267C273.807 9.84089 273.422 9.53419 273.142 9.14142C272.892 8.75149 272.765 8.29596 272.778 7.83363C272.752 7.44561 272.825 7.05737 272.991 6.70542C273.158 6.35346 273.411 6.04935 273.728 5.82165C274.504 5.30761 275.427 5.06028 276.358 5.11746L279.999 5.13758ZM275.346 7.93423C275.341 8.05112 275.361 8.1678 275.407 8.27572C275.452 8.38364 275.522 8.48007 275.609 8.55795C275.849 8.69339 276.123 8.75632 276.398 8.73902H277.753V7.10932H276.418C275.71 7.10932 275.346 7.391 275.346 7.93423Z" fill="#54565A"/>
<path d="M142.195 18.9375H144.784V24.3698L148.648 18.9375H151.115V28.1926H148.526V22.7603L144.683 28.1926H142.195V18.9375Z" fill="#54565A"/>
<path d="M153.055 21.0312H155.583V23.6871H158.172V21.0312H160.7V28.1939H158.172V25.6789H155.583V28.1939H153.055V21.0312Z" fill="#54565A"/>
<path d="M162.504 21.0312H165.012V23.6871H167.621V21.0312H170.15V28.1939H167.621V25.6789H165.012V28.1939H162.504V21.0312Z" fill="#54565A"/>
<path d="M173.402 27.8898C172.801 27.5918 172.297 27.1316 171.946 26.5619C171.579 25.9558 171.396 25.257 171.42 24.5499C171.414 23.8829 171.596 23.2276 171.946 22.6586C172.291 22.0846 172.797 21.6231 173.402 21.3307C174.058 21.0254 174.772 20.8672 175.496 20.8672C176.219 20.8672 176.934 21.0254 177.589 21.3307C178.189 21.6215 178.694 22.0748 179.046 22.6385C179.391 23.2207 179.573 23.8841 179.573 24.56C179.573 25.2358 179.391 25.8993 179.046 26.4814C178.695 27.0511 178.19 27.5113 177.589 27.8093C176.934 28.1146 176.219 28.2729 175.496 28.2729C174.772 28.2729 174.058 28.1146 173.402 27.8093V27.8898ZM176.578 25.8778C176.886 25.5287 177.045 25.0742 177.023 24.6103C177.034 24.3866 177.001 24.1629 176.924 23.9522C176.848 23.7415 176.73 23.548 176.578 23.383C176.436 23.2369 176.267 23.1207 176.079 23.0414C175.891 22.9621 175.69 22.9212 175.486 22.9212C175.282 22.9212 175.08 22.9621 174.892 23.0414C174.705 23.1207 174.535 23.2369 174.393 23.383C174.245 23.5496 174.131 23.7438 174.058 23.9544C173.985 24.1651 173.955 24.3879 173.969 24.6103C173.94 25.0715 174.093 25.5256 174.393 25.8778C174.535 26.0239 174.705 26.14 174.892 26.2194C175.08 26.2987 175.282 26.3396 175.486 26.3396C175.69 26.3396 175.891 26.2987 176.079 26.2194C176.267 26.14 176.436 26.0239 176.578 25.8778Z" fill="#54565A"/>
<path d="M187.906 26.1436C187.915 26.439 187.849 26.7318 187.715 26.9953C187.58 27.2589 187.382 27.4849 187.138 27.6526C186.47 28.0569 185.693 28.2466 184.913 28.1959H180.867V21.0332H184.751C185.51 20.993 186.265 21.16 186.935 21.5161C187.177 21.6522 187.377 21.8518 187.512 22.0931C187.648 22.3344 187.714 22.608 187.704 22.8842C187.716 23.2125 187.624 23.5362 187.441 23.8097C187.249 24.0827 186.992 24.3039 186.693 24.4536C187.061 24.5509 187.384 24.7729 187.605 25.0814C187.827 25.3899 187.933 25.7655 187.906 26.1436ZM183.112 23.8701H184.488C185.074 23.8701 185.378 23.6488 185.378 23.2263C185.378 22.8038 185.074 22.6026 184.488 22.6026H183.112V23.8701ZM185.6 25.8821C185.6 25.4394 185.297 25.2181 184.71 25.2181H183.112V26.5259H184.69C185.297 26.5662 185.6 26.365 185.6 25.8821Z" fill="#54565A"/>
<path d="M194.966 21.7155C195.296 22.0382 195.55 22.4289 195.71 22.86C195.871 23.2912 195.935 23.7521 195.897 24.2104V28.2344H193.55V27.3088C193.346 27.6548 193.048 27.9365 192.69 28.1215C192.333 28.3066 191.93 28.3876 191.528 28.3551C191.028 28.3652 190.531 28.2692 190.071 28.0734C189.695 27.9014 189.373 27.63 189.141 27.2887C188.935 26.9418 188.83 26.5448 188.838 26.1419C188.825 25.8353 188.89 25.5304 189.028 25.2558C189.166 24.9813 189.372 24.7462 189.626 24.5726C190.35 24.1395 191.192 23.9425 192.033 24.0092H193.469C193.469 23.2446 192.964 22.8624 191.952 22.8624C191.596 22.8667 191.242 22.9209 190.901 23.0233C190.571 23.1197 190.262 23.2766 189.99 23.4861L189.141 21.7759C189.589 21.4957 190.082 21.2918 190.597 21.1723C191.103 21.0202 191.627 20.9323 192.155 20.9107C193.16 20.8207 194.163 21.1078 194.966 21.7155ZM192.944 26.5242C193.157 26.3659 193.307 26.1379 193.368 25.8803V25.2767H192.276C191.548 25.2767 191.184 25.5182 191.184 26.0011C191.181 26.1039 191.201 26.2062 191.243 26.3003C191.285 26.3943 191.348 26.4777 191.427 26.5443C191.639 26.6744 191.886 26.7375 192.135 26.7254C192.405 26.7327 192.671 26.6629 192.903 26.5242H192.944Z" fill="#54565A"/>
<path d="M205.91 26.1819V29.7029H203.564V28.1939H197.496V21.0312H200.045V26.1819H202.371V21.0312H204.919V26.1819H205.91Z" fill="#54565A"/>
<path d="M207.08 21.0312H209.608V24.7937L212.622 21.0312H214.948V28.1939H212.379V24.4315L209.385 28.1939H207.039L207.08 21.0312Z" fill="#54565A"/>
<path d="M218.229 27.8921C217.628 27.5941 217.123 27.134 216.772 26.5642C216.395 25.9625 216.212 25.2605 216.246 24.5523C216.231 23.8841 216.414 23.2263 216.772 22.661C217.115 22.092 217.613 21.6315 218.208 21.3331C218.867 21.0288 219.585 20.8711 220.312 20.8711C221.039 20.8711 221.756 21.0288 222.416 21.3331C223.015 21.6238 223.52 22.0772 223.872 22.6409C224.217 23.223 224.399 23.8865 224.399 24.5623C224.399 25.2381 224.217 25.9016 223.872 26.4838C223.555 27.0722 223.079 27.5602 222.496 27.8921C221.865 28.1934 221.174 28.3514 220.474 28.3549C219.698 28.3903 218.926 28.2311 218.229 27.8921ZM221.404 25.8802C221.705 25.528 221.857 25.0738 221.829 24.6126C221.843 24.3903 221.813 24.1674 221.74 23.9568C221.667 23.7462 221.553 23.5519 221.404 23.3853C221.263 23.2393 221.093 23.1231 220.905 23.0438C220.718 22.9644 220.516 22.9235 220.312 22.9235C220.108 22.9235 219.906 22.9644 219.719 23.0438C219.531 23.1231 219.361 23.2393 219.22 23.3853C219.071 23.5519 218.957 23.7462 218.884 23.9568C218.811 24.1674 218.781 24.3903 218.795 24.6126C218.767 25.0738 218.919 25.528 219.22 25.8802C219.361 26.0262 219.531 26.1424 219.719 26.2217C219.906 26.3011 220.108 26.342 220.312 26.342C220.516 26.342 220.718 26.3011 220.905 26.2217C221.093 26.1424 221.263 26.0262 221.404 25.8802Z" fill="#54565A"/>
<path d="M225.668 21.0312H228.176V23.6871H230.785V21.0312H233.314V28.1939H230.785V25.6789H228.176V28.1939H225.668V21.0312Z" fill="#54565A"/>
<path d="M235.094 21.0312H237.623V23.6871H240.212V21.0312H242.72V28.1939H240.192V25.6789H237.603V28.1939H235.074L235.094 21.0312Z" fill="#54565A"/>
<path d="M250.224 21.7178C250.556 22.0394 250.813 22.4294 250.977 22.8604C251.142 23.2914 251.209 23.7529 251.175 24.2126V28.2366H248.788V27.3111C248.577 27.6738 248.263 27.9665 247.885 28.1526C247.507 28.3387 247.083 28.4099 246.664 28.3573C246.165 28.3632 245.669 28.2674 245.208 28.0756C244.837 27.9032 244.522 27.6315 244.298 27.2909C244.076 26.9499 243.963 26.5501 243.974 26.1441C243.961 25.8375 244.027 25.5326 244.165 25.258C244.303 24.9835 244.509 24.7484 244.763 24.5748C245.492 24.1376 246.342 23.9404 247.19 24.0114H248.626C248.626 23.2469 248.06 22.8646 247.089 22.8646C246.733 22.8702 246.379 22.9244 246.037 23.0255C245.711 23.1305 245.404 23.2868 245.127 23.4883L244.278 21.7781C244.726 21.498 245.218 21.294 245.734 21.1745C246.301 21.0218 246.886 20.9474 247.473 20.9532C248.453 20.8669 249.431 21.1387 250.224 21.7178ZM248.202 26.5264C248.427 26.3762 248.597 26.1573 248.687 25.9027V25.279H247.595C246.846 25.279 246.482 25.5204 246.482 26.0033C246.478 26.1083 246.5 26.2127 246.546 26.3074C246.592 26.4021 246.66 26.4842 246.745 26.5465C246.95 26.6775 247.19 26.7408 247.433 26.7276C247.69 26.7274 247.941 26.6578 248.161 26.5264H248.202Z" fill="#54565A"/>
<path d="M259.569 21.0329V28.1955H257.324V26.1835H256.171L254.897 28.1955H252.227L253.824 25.922C253.38 25.7408 253 25.4327 252.732 25.0367C252.466 24.653 252.332 24.1946 252.348 23.7289C252.326 23.3414 252.401 22.9544 252.567 22.6031C252.733 22.2518 252.984 21.9472 253.299 21.717C254.081 21.2 255.011 20.9526 255.948 21.0128L259.569 21.0329ZM254.856 23.8698C254.848 23.9851 254.865 24.1008 254.907 24.2086C254.949 24.3165 255.015 24.4137 255.099 24.4935C255.345 24.6306 255.626 24.6935 255.908 24.6746H257.243V23.0449H255.908C255.281 23.0046 254.856 23.2863 254.856 23.8698Z" fill="#54565A"/>
<path d="M145.956 40.55H144.762V44.0911H142.133V34.8359H144.762V38.4374H146.037L148.262 34.8359H151.033L148.1 39.3025L151.053 44.0911H148.079L145.956 40.55Z" fill="#54565A"/>
<path d="M159.449 36.9297V44.0923H156.92V38.9215H155.08V40.0281C155.054 40.8062 154.959 41.5805 154.797 42.3419C154.677 42.8751 154.419 43.3677 154.048 43.7704C153.659 44.1128 153.152 44.2929 152.632 44.2734C152.215 44.26 151.801 44.1992 151.398 44.0923V42.0804H151.722C151.842 42.0867 151.961 42.0645 152.07 42.0154C152.179 41.9664 152.275 41.8921 152.349 41.7987C152.51 41.5963 152.609 41.3516 152.632 41.0945C152.705 40.7027 152.745 40.3057 152.754 39.9074V36.9297H159.449Z" fill="#54565A"/>
<path d="M161.227 36.9297H163.836V40.6921L166.85 36.9297H169.095V44.0923H166.566V40.3299L163.573 44.0923H161.227V36.9297Z" fill="#54565A"/>
<path d="M170.898 36.9297H173.427V39.5855H175.975V36.9297H178.504V44.0923H175.975V41.5774H173.427V44.0923H170.898V36.9297Z" fill="#54565A"/>
<path d="M180.344 36.9297H182.872V40.6921L185.886 36.9297H188.212V44.0923H185.684V40.3299L182.69 44.0923H180.344V36.9297Z" fill="#54565A"/>
<path d="M193.39 41.5371H192.54V44.0923H190.012V36.9297H192.54V39.5654H193.45L195.23 36.9297H197.9L195.473 40.3702L198.062 44.0923H195.068L193.39 41.5371Z" fill="#54565A"/>
<path d="M204.535 37.6125C204.868 37.9334 205.126 38.3233 205.29 38.7545C205.454 39.1857 205.521 39.6476 205.486 40.1074V44.1313H203.119V43.2058C202.915 43.5518 202.617 43.8335 202.259 44.0185C201.901 44.2036 201.498 44.2845 201.096 44.2521C200.597 44.258 200.101 44.1622 199.64 43.9704C199.269 43.7979 198.954 43.5262 198.73 43.1857C198.431 42.8505 198.253 42.4257 198.224 41.9785C198.211 41.6719 198.277 41.367 198.415 41.0925C198.553 40.8179 198.759 40.5828 199.013 40.4092C199.742 39.972 200.592 39.7748 201.44 39.8458H202.876C202.876 39.0813 202.31 38.699 201.339 38.699C200.983 38.7046 200.629 38.7588 200.287 38.8599C199.961 38.9649 199.654 39.1212 199.377 39.3227L198.528 37.6125C198.976 37.3324 199.468 37.1284 199.984 37.0089C200.551 36.8563 201.136 36.7818 201.724 36.7876C202.731 36.7033 203.734 36.9976 204.535 37.6125ZM202.512 42.4212C202.738 42.2709 202.908 42.0521 202.998 41.7974V41.1737H201.865C201.137 41.1737 200.753 41.4152 200.753 41.898C200.746 42.0005 200.767 42.1029 200.813 42.1947C200.86 42.2866 200.929 42.3647 201.016 42.4212C201.213 42.5678 201.457 42.6392 201.703 42.6224C201.974 42.6297 202.24 42.5598 202.472 42.4212H202.512Z" fill="#54565A"/>
</svg>
