<svg width="271" height="96" viewBox="0 0 271 96" fill="none" xmlns="http://www.w3.org/2000/svg">
<g opacity="0.1">
<path d="M135.312 45.4058H115.667C115.289 45.4022 114.92 45.5158 114.61 45.7307C114.3 45.9455 114.066 46.2509 113.94 46.6042L99.9946 85.1241L94.5113 1.83558C94.4673 1.35122 94.236 0.902513 93.8658 0.583402C93.4956 0.26429 93.0152 0.0995184 92.5252 0.123584C92.1988 0.147571 91.8842 0.254743 91.6119 0.434711C91.3396 0.61468 91.1188 0.861339 90.9709 1.15078L60.4458 62.6113L33.3747 1.23638C33.2883 1.00208 33.1557 0.787146 32.9848 0.604053C32.8138 0.42096 32.6079 0.273361 32.3789 0.169828C32.15 0.0662953 31.9025 0.00889252 31.651 0.00095379C31.3995 -0.00698494 31.1488 0.0346987 30.9137 0.123584C30.6016 0.276447 30.3343 0.506348 30.1377 0.79118C29.9411 1.07601 29.8218 1.4062 29.7911 1.74998L24.4805 45.4058H1.85655C1.36416 45.4058 0.891941 45.5997 0.54377 45.9449C0.1956 46.29 0 46.7581 0 47.2462C0 47.7343 0.1956 48.2024 0.54377 48.5476C0.891941 48.8927 1.36416 49.0866 1.85655 49.0866H26.1212C26.5737 49.0886 27.0105 48.9229 27.3461 48.622C27.6816 48.3211 27.8915 47.9067 27.9346 47.4602L32.6839 8.94035L58.5892 67.7473C58.7457 68.0634 58.9885 68.3297 59.2899 68.5159C59.5914 68.7022 59.9395 68.8009 60.2947 68.8009C60.6499 68.8009 60.9979 68.7022 61.2994 68.5159C61.6009 68.3297 61.8436 68.0634 62.0001 67.7473L91.2299 8.98315L96.8428 94.2832C96.8592 94.5251 96.9237 94.7614 97.0325 94.9785C97.1413 95.1956 97.2923 95.3893 97.4769 95.5484C97.6614 95.7075 97.8759 95.8288 98.1079 95.9055C98.3399 95.9822 98.5849 96.0127 98.8288 95.9952C99.1904 95.9758 99.5384 95.8521 99.8299 95.6391C100.121 95.4262 100.344 95.1334 100.47 94.7968L116.963 49.3434H135.312C135.761 49.2757 136.171 49.0506 136.467 48.7091C136.763 48.3675 136.926 47.932 136.926 47.4816C136.926 47.0312 136.763 46.5957 136.467 46.2541C136.171 45.9126 135.761 45.6875 135.312 45.6198V45.4058Z" fill="white"/>
<path d="M262.815 19.1861C262.423 19.1972 262.05 19.36 261.776 19.6398C261.503 19.9196 261.35 20.2944 261.35 20.6845V24.0238C261.323 25.08 261.664 26.1131 262.316 26.9479C262.968 27.7827 263.891 28.3681 264.927 28.6047C265.509 28.7485 266.115 28.7701 266.706 28.668C267.297 28.566 267.86 28.3427 268.359 28.0123C268.858 27.6819 269.282 27.2517 269.604 26.7492C269.926 26.2467 270.139 25.683 270.229 25.0941C270.273 24.8104 270.273 24.5216 270.229 24.2379V20.6845C270.229 20.2944 270.076 19.9196 269.802 19.6398C269.529 19.36 269.156 19.1972 268.763 19.1861H267.815V11.6511C261.034 5.81798 252.745 1.98639 243.885 0.589932C235.026 -0.80653 225.95 0.287882 217.684 3.74933C209.418 7.21078 202.292 12.9011 197.114 20.1764C191.935 27.4516 188.909 36.0214 188.379 44.9161H156.958C155.258 44.9266 153.628 45.5936 152.413 46.776C151.199 47.9584 150.495 49.5636 150.45 51.2523V90.254C150.468 90.4262 150.45 90.6001 150.399 90.7654C150.347 90.9307 150.262 91.0839 150.15 91.2158C150.037 91.3478 149.899 91.4557 149.743 91.5332C149.587 91.6107 149.417 91.6562 149.243 91.6668C149.068 91.6845 148.89 91.6675 148.721 91.6167C148.552 91.5659 148.395 91.4824 148.259 91.3709C148.123 91.2595 148.01 91.1223 147.927 90.9673C147.845 90.8123 147.794 90.6427 147.778 90.4681V14.7764C148.761 14.5622 149.69 14.1538 150.511 13.5753C151.331 12.9969 152.026 12.2604 152.554 11.4096C153.083 10.5588 153.433 9.61112 153.585 8.62304C153.736 7.63496 153.686 6.62667 153.437 5.65821C153.189 4.68975 152.746 3.78092 152.136 2.98586C151.526 2.1908 150.762 1.52576 149.888 1.03035C149.014 0.534939 148.049 0.219285 147.049 0.102189C146.05 -0.0149079 145.037 0.0689471 144.071 0.34876C142.46 0.760886 141.033 1.69324 140.014 2.99914C138.995 4.30504 138.442 5.91037 138.442 7.56259C138.442 9.2148 138.995 10.8201 140.014 12.126C141.033 13.4319 142.46 14.3643 144.071 14.7764V90.3825C144.056 91.6471 144.519 92.8714 145.368 93.8134C146.218 94.7555 147.392 95.3468 148.659 95.4705C149.926 95.5942 151.194 95.2413 152.212 94.4816C153.23 93.7218 153.924 92.6105 154.157 91.3671C154.2 91.0403 154.2 90.7093 154.157 90.3825V51.2523C154.168 50.5217 154.468 49.8248 154.992 49.3122C155.517 48.7995 156.223 48.5122 156.958 48.5123H188.25C188.395 57.6025 191.152 66.4623 196.198 74.0477C201.243 81.633 208.366 87.628 216.727 91.3262C225.089 95.0244 234.34 96.2717 243.391 94.9213C252.443 93.5708 260.917 89.6788 267.815 83.7038V76.2973H268.806C269.207 76.2973 269.59 76.1394 269.873 75.8584C270.156 75.5774 270.315 75.1963 270.315 74.7989V71.4595C270.334 70.4052 269.99 69.3762 269.339 68.543C268.688 67.7098 267.77 67.1226 266.738 66.8787C265.561 66.6505 264.342 66.8906 263.342 67.5473C262.342 68.204 261.642 69.2247 261.393 70.3892C261.37 70.6742 261.37 70.9605 261.393 71.2455V74.7989C261.393 75.1963 261.552 75.5774 261.835 75.8584C262.118 76.1394 262.502 76.2973 262.902 76.2973H264.022V81.9485C257.522 87.1333 249.678 90.3873 241.396 91.3352C233.114 92.2832 224.731 90.8864 217.214 87.3061C209.697 83.7257 203.351 78.1076 198.91 71.0998C194.469 64.0919 192.112 55.9797 192.112 47.6989C192.112 39.418 194.469 31.3058 198.91 24.298C203.351 17.2901 209.697 11.672 217.214 8.09164C224.731 4.51129 233.114 3.11453 241.396 4.06248C249.678 5.01042 257.522 8.26445 264.022 13.4492V19.1861H262.815ZM142.131 7.6268C142.131 6.88167 142.354 6.15327 142.771 5.53372C143.187 4.91416 143.78 4.43128 144.473 4.14613C145.166 3.86098 145.929 3.78637 146.664 3.93174C147.4 4.07711 148.076 4.43592 148.606 4.96281C149.137 5.4897 149.498 6.161 149.644 6.89181C149.791 7.62263 149.716 8.38014 149.429 9.06855C149.142 9.75696 148.655 10.3454 148.032 10.7593C147.408 11.1733 146.675 11.3943 145.924 11.3943C145.425 11.4 144.929 11.3065 144.466 11.1192C144.003 10.9319 143.583 10.6546 143.23 10.3036C142.876 9.9526 142.597 9.53499 142.408 9.07531C142.22 8.61563 142.126 8.12315 142.131 7.6268Z" fill="white"/>
</g>
</svg>
