<svg width="24" height="24" viewBox="0 0 24 24" fill="none" xmlns="http://www.w3.org/2000/svg">
<path d="M12 24C18.5786 24 24 18.5689 24 11.9937C24 5.43112 18.566 0 12 0C5.42138 0 0 5.43112 0 11.9937C0 18.5689 5.43396 24 12 24ZM12 22.2651C6.31447 22.2651 1.73585 17.6888 1.73585 11.9937C1.73585 6.31116 6.30189 1.73494 12 1.73494C17.6855 1.73494 22.2642 6.31116 22.2767 11.9937C22.2893 17.6888 17.6981 22.2651 12 22.2651ZM11.9748 17.6386C12.5283 17.6386 12.8553 17.2614 12.8553 16.6831V12.8612H16.8428C17.3962 12.8612 17.7987 12.5469 17.7987 12.0189C17.7987 11.4657 17.4214 11.1514 16.8428 11.1514H12.8553V7.15348C12.8553 6.5626 12.5283 6.19801 11.9748 6.19801C11.4465 6.19801 11.1447 6.58774 11.1447 7.15348V11.1514H7.15723C6.56604 11.1514 6.18868 11.4657 6.18868 12.0189C6.18868 12.5469 6.59119 12.8612 7.15723 12.8612H11.1447V16.6831C11.1447 17.2488 11.4465 17.6386 11.9748 17.6386Z" fill="#00AC69"/>
</svg>
