<svg width="20" height="21" viewBox="0 0 20 21" fill="none" xmlns="http://www.w3.org/2000/svg">
<path d="M8.27051 16.5498C9.93555 16.5498 11.4824 16.0234 12.7607 15.1318L17.4551 19.8369C17.7021 20.0732 18.0244 20.1914 18.3682 20.1914C19.0879 20.1914 19.6035 19.6436 19.6035 18.9346C19.6035 18.6016 19.4961 18.2793 19.249 18.0322L14.5869 13.3594C15.5645 12.0488 16.1445 10.4268 16.1445 8.67578C16.1445 4.34668 12.5996 0.801758 8.27051 0.801758C3.93066 0.801758 0.396484 4.34668 0.396484 8.67578C0.396484 13.0049 3.93066 16.5498 8.27051 16.5498ZM8.27051 14.7129C4.95117 14.7129 2.22266 11.9844 2.22266 8.67578C2.22266 5.36719 4.95117 2.63867 8.27051 2.63867C11.5791 2.63867 14.3076 5.36719 14.3076 8.67578C14.3076 11.9844 11.5791 14.7129 8.27051 14.7129Z" fill="#00AC69"/>
</svg>
