<svg width="11" height="11" viewBox="0 0 11 11" fill="none" xmlns="http://www.w3.org/2000/svg">
<path d="M10 9.16666L7.70833 6.66667C8.30425 5.94014 8.42857 5.22857 8.42857 4.21429C8.42857 1.88776 6.54081 5.71816e-07 4.21428 3.68424e-07C1.88571 1.64854e-07 -1.65033e-07 1.88775 -3.68424e-07 4.21428C-5.71816e-07 6.54081 1.88571 8.42857 4.21428 8.42857C5.22857 8.42857 5.94013 8.30425 6.66666 7.70833L9.16666 10C9.32993 10.1633 9.71428 10.0408 9.87755 9.87755C10.0408 9.71632 10.1633 9.32789 10 9.16666ZM4.21428 7.17313C2.5796 7.17313 1.25396 5.84897 1.2534 4.21428C1.25284 2.57903 2.57903 1.2534 4.21428 1.2534C5.84954 1.2534 7.17573 2.57903 7.17517 4.21429C7.1746 5.84897 5.84897 7.17313 4.21428 7.17313Z" fill="url(#paint0_linear)"/>
<defs>
<linearGradient id="paint0_linear" x1="1.54799" y1="2.15771" x2="10.7069" y2="3.06449" gradientUnits="userSpaceOnUse">
<stop stop-color="#00AC69"/>
<stop offset="1" stop-color="#118F8B"/>
</linearGradient>
</defs>
</svg>
