<svg width="304" height="155" viewBox="0 0 304 155" fill="none" xmlns="http://www.w3.org/2000/svg">
<path d="M53.8191 1C59.5456 13.6455 65.6797 25.9174 72.0894 38.0201M72.0894 38.0201C80.6177 54.1231 89.634 69.9266 98.8279 85.9124C105.995 98.375 116.586 114.285 114.446 129.72C109.569 164.898 49.0359 154.571 28.972 143.659C16.0104 136.609 0.838556 123.408 1.0013 107.105C1.20286 86.9133 19.6234 68.7421 34.7933 58.1772C46.3281 50.144 58.9234 43.5526 72.0894 38.0201ZM72.0894 38.0201C97.6983 27.259 125.466 20.5043 151.788 14.9387C182.232 8.50146 212.096 6.61608 242.941 4.84026M88.3211 40.6827C90.805 44.9624 93.2471 49.2749 95.6676 53.6055M95.6676 53.6055C106.498 72.9836 116.895 92.7233 128.655 111.505M95.6676 53.6055C90.2665 69.6352 116.812 97.5557 128.655 111.505M95.6676 53.6055C96.8438 50.1147 99.5351 47.1878 104.223 45.0919C109.629 42.675 122.474 39.1295 126.089 46.372C129.569 53.3457 121.961 59.2759 119.983 65.2177C118.528 69.5915 126.278 58.4331 129.922 55.617C132.271 53.8022 131.007 56.2911 133.188 52.7013C142.206 37.8598 133.85 53.6526 135.886 57.3238C138.441 61.9323 160.542 34.3796 156.757 49.0033C153.056 63.3026 169.375 49.1881 174.789 46.2297C213.915 24.8509 259.906 30.442 303 30.442M128.655 111.505C129.821 113.367 131 115.219 132.194 117.061C136.162 123.181 136.431 121.726 132.549 116.35C131.6 115.036 130.263 113.399 128.655 111.505Z" stroke="black" stroke-linecap="round" stroke-linejoin="round"/>
</svg>
