<svg width="672" height="209" viewBox="0 0 672 209" fill="none" xmlns="http://www.w3.org/2000/svg">
<path opacity="0.05" d="M262.12 86.6364H202.723C201.58 86.6255 200.462 86.9698 199.526 87.6211C198.59 88.2724 197.882 89.1982 197.501 90.269L155.336 207.032L138.757 -45.4359C138.624 -46.9041 137.925 -48.2643 136.805 -49.2316C135.686 -50.1989 134.234 -50.6983 132.752 -50.6254C131.765 -50.5527 130.814 -50.2278 129.991 -49.6823C129.167 -49.1368 128.5 -48.3891 128.053 -47.5117L35.7592 138.791L-46.0908 -47.2522C-46.3521 -47.9624 -46.7529 -48.614 -47.2697 -49.169C-47.7866 -49.724 -48.4092 -50.1714 -49.1015 -50.4852C-49.7938 -50.799 -50.5419 -50.973 -51.3025 -50.9971C-52.063 -51.0212 -52.8207 -50.8948 -53.5317 -50.6254C-54.4755 -50.162 -55.2834 -49.4651 -55.8778 -48.6017C-56.4722 -47.7383 -56.8331 -46.7375 -56.9258 -45.6954L-72.9825 86.6364H-141.387C-142.875 86.6364 -144.303 87.2241 -145.356 88.2703C-146.409 89.3165 -147 90.7355 -147 92.2151C-147 93.6946 -146.409 95.1136 -145.356 96.1598C-144.303 97.206 -142.875 97.7937 -141.387 97.7937H-68.0219C-66.6539 97.7999 -65.333 97.2976 -64.3185 96.3855C-63.3041 95.4733 -62.6694 94.2172 -62.5391 92.8638L-48.1795 -23.8996L30.1459 154.359C30.619 155.317 31.353 156.124 32.2645 156.689C33.1759 157.253 34.2284 157.553 35.3023 157.553C36.3763 157.553 37.4287 157.253 38.3402 156.689C39.2516 156.124 39.9856 155.317 40.4588 154.359L128.836 -23.7698L145.806 234.796C145.856 235.529 146.051 236.246 146.38 236.904C146.709 237.562 147.166 238.149 147.724 238.631C148.282 239.113 148.93 239.481 149.632 239.714C150.333 239.946 151.074 240.038 151.811 239.986C152.905 239.927 153.957 239.552 154.838 238.906C155.719 238.261 156.392 237.373 156.772 236.353L206.639 98.5722H262.12C263.478 98.3669 264.717 97.6848 265.612 96.6493C266.508 95.6139 267 94.2939 267 92.9286C267 91.5633 266.508 90.2433 265.612 89.2079C264.717 88.1725 263.478 87.4903 262.12 87.285V86.6364Z" fill="white"/>
<path opacity="0.05" d="M649.25 7.26453C648.059 7.29837 646.928 7.79269 646.098 8.64242C645.268 9.49215 644.804 10.6303 644.805 11.815V21.9559C644.723 25.1635 645.758 28.3006 647.736 30.8358C649.713 33.3711 652.511 35.1486 655.656 35.8672C657.421 36.3039 659.258 36.3694 661.051 36.0596C662.843 35.7498 664.55 35.0715 666.063 34.0681C667.577 33.0647 668.863 31.7583 669.84 30.2323C670.817 28.7064 671.463 26.9945 671.736 25.2062C671.871 24.3447 671.871 23.4675 671.736 22.606V11.815C671.737 10.6303 671.273 9.49215 670.443 8.64242C669.613 7.79269 668.482 7.29837 667.291 7.26453H664.415V-15.6176C643.847 -33.3319 618.704 -44.9677 591.831 -49.2085C564.958 -53.4493 537.428 -50.1258 512.356 -39.614C487.284 -29.1022 465.671 -11.8218 449.962 10.2719C434.254 32.3656 425.077 58.3905 423.47 85.4019H328.164C323.005 85.4339 318.062 87.4594 314.378 91.0501C310.694 94.6409 308.558 99.5156 308.423 104.644V223.085C308.476 223.608 308.423 224.136 308.267 224.638C308.11 225.14 307.853 225.605 307.512 226.006C307.17 226.406 306.75 226.734 306.277 226.97C305.805 227.205 305.289 227.343 304.762 227.375C304.229 227.429 303.691 227.377 303.179 227.223C302.666 227.069 302.19 226.815 301.776 226.477C301.363 226.138 301.021 225.722 300.771 225.251C300.52 224.78 300.366 224.265 300.317 223.735V-6.12674C303.298 -6.77721 306.117 -8.01765 308.607 -9.7742C311.096 -11.5308 313.204 -13.7675 314.806 -16.3512C316.408 -18.9349 317.47 -21.8128 317.93 -24.8134C318.39 -27.814 318.238 -30.876 317.484 -33.8171C316.729 -36.7581 315.387 -39.518 313.537 -41.9325C311.688 -44.3469 309.368 -46.3665 306.717 -47.871C304.067 -49.3755 301.138 -50.3341 298.107 -50.6897C295.076 -51.0453 292.004 -50.7906 289.074 -49.9409C284.188 -48.6893 279.859 -45.858 276.768 -41.8922C273.677 -37.9264 272 -33.0513 272 -28.0338C272 -23.0163 273.677 -18.1412 276.768 -14.1754C279.859 -10.2097 284.188 -7.3783 289.074 -6.12674V223.475C289.028 227.315 290.431 231.033 293.008 233.894C295.585 236.755 299.147 238.551 302.99 238.926C306.834 239.302 310.679 238.23 313.767 235.923C316.854 233.616 318.959 230.241 319.666 226.465C319.797 225.473 319.797 224.467 319.666 223.475V104.644C319.7 102.425 320.611 100.309 322.201 98.752C323.79 97.1951 325.932 96.3227 328.164 96.3229H423.078C423.517 123.928 431.881 150.834 447.185 173.869C462.488 196.905 484.094 215.11 509.455 226.341C534.817 237.572 562.878 241.36 590.332 237.258C617.787 233.157 643.491 221.338 664.415 203.193V180.701H667.422C668.636 180.701 669.799 180.221 670.658 179.368C671.516 178.515 671.998 177.357 671.998 176.15V166.009C672.055 162.808 671.011 159.683 669.037 157.153C667.063 154.622 664.279 152.839 661.147 152.098C657.578 151.405 653.879 152.135 650.847 154.129C647.814 156.123 645.691 159.223 644.936 162.759C644.865 163.624 644.865 164.494 644.936 165.359V176.15C644.936 177.357 645.418 178.515 646.276 179.368C647.134 180.221 648.298 180.701 649.511 180.701H652.91V197.863C633.193 213.608 609.402 223.49 584.281 226.368C559.16 229.247 533.732 225.005 510.931 214.133C488.129 203.26 468.883 186.199 455.411 164.917C441.94 143.635 434.792 119 434.792 93.8527C434.792 68.7053 441.94 44.0701 455.411 22.7885C468.883 1.50684 488.129 -15.5543 510.931 -26.4272C533.732 -37.3 559.16 -41.5417 584.281 -38.663C609.402 -35.7843 633.193 -25.9024 652.91 -10.1571V7.26453H649.25ZM283.191 -27.8388C283.191 -30.1016 283.865 -32.3136 285.13 -34.1951C286.394 -36.0766 288.19 -37.543 290.293 -38.409C292.395 -39.2749 294.708 -39.5015 296.94 -39.06C299.172 -38.6186 301.221 -37.5289 302.83 -35.9289C304.439 -34.3288 305.535 -32.2902 305.979 -30.0708C306.423 -27.8515 306.195 -25.5511 305.324 -23.4605C304.454 -21.3699 302.979 -19.583 301.087 -18.3259C299.195 -17.0687 296.971 -16.3977 294.695 -16.3977C293.18 -16.3803 291.676 -16.6643 290.272 -17.2331C288.868 -17.8019 287.593 -18.644 286.521 -19.7099C285.449 -20.7758 284.603 -22.044 284.031 -23.4399C283.459 -24.8359 283.173 -26.3315 283.191 -27.8388Z" fill="white"/>
</svg>
