<svg width="41" height="41" viewBox="0 0 41 41" fill="none" xmlns="http://www.w3.org/2000/svg">
<path d="M39.8825 36.559L30.7428 26.5883C33.1194 23.6908 33.6153 20.8529 33.6153 16.8076C33.6153 7.52884 26.0864 0 16.8076 0C7.5207 0 0 7.52884 0 16.8076C0 26.0864 7.5207 33.6153 16.8076 33.6153C20.8529 33.6153 23.6908 33.1194 26.5883 30.7428L36.559 39.8825C37.2101 40.5337 38.743 40.0453 39.3942 39.3942C40.0453 38.7512 40.5337 37.202 39.8825 36.559ZM16.8076 28.6082C10.2881 28.6082 5.00113 23.3272 4.99888 16.8076C4.99663 10.2858 10.2858 4.99888 16.8076 4.99888C23.3294 4.99888 28.6186 10.2858 28.6164 16.8076C28.6141 23.3272 23.3272 28.6082 16.8076 28.6082Z" fill="white"/>
</svg>
